<mxfile host="65bd71144e" modified="2020-10-08T16:41:31.567Z" agent="5.0 (Windows NT 10.0; Win64; x64) AppleWebKit/537.36 (KHTML, like Gecko) Code/1.49.3 Chrome/83.0.4103.122 Electron/9.2.1 Safari/537.36" etag="BCGgCfOt1CVGvhbHeu-4" version="13.6.5">
    <diagram id="C5RBs43oDa-KdzZeNtuy" name="Page-1">
        <mxGraphModel dx="2034" dy="1747" grid="1" gridSize="10" guides="1" tooltips="1" connect="1" arrows="1" fold="1" page="1" pageScale="1" pageWidth="827" pageHeight="1169" background="#283618" math="0" shadow="0">
            <root>
                <mxCell id="WIyWlLk6GJQsqaUBKTNV-0"/>
                <mxCell id="WIyWlLk6GJQsqaUBKTNV-1" parent="WIyWlLk6GJQsqaUBKTNV-0"/>
                <mxCell id="zkfFHV4jXpPFQw0GAbJ--6" value="init()" style="swimlane;fontStyle=0;align=center;verticalAlign=top;childLayout=stackLayout;horizontal=1;startSize=26;horizontalStack=0;resizeParent=1;resizeLast=0;collapsible=1;marginBottom=0;rounded=0;shadow=0;strokeWidth=1;fillColor=#BC6C25;strokeColor=#DDA15E;fontColor=#FEFAE0;" parent="WIyWlLk6GJQsqaUBKTNV-1" vertex="1">
                    <mxGeometry x="260" y="-950" width="140" height="110" as="geometry">
                        <mxRectangle x="20" y="10" width="160" height="26" as="alternateBounds"/>
                    </mxGeometry>
                </mxCell>
                <mxCell id="zkfFHV4jXpPFQw0GAbJ--7" value="updateProducts();" style="text;align=center;verticalAlign=top;spacingLeft=4;spacingRight=4;overflow=hidden;rotatable=0;points=[[0,0.5],[1,0.5]];portConstraint=eastwest;fillColor=#BC6C25;strokeColor=#DDA15E;fontColor=#FEFAE0;" parent="zkfFHV4jXpPFQw0GAbJ--6" vertex="1">
                    <mxGeometry y="26" width="140" height="26" as="geometry"/>
                </mxCell>
                <mxCell id="zkfFHV4jXpPFQw0GAbJ--8" value="updateShoppingCart();" style="text;align=center;verticalAlign=top;spacingLeft=4;spacingRight=4;overflow=hidden;rotatable=0;points=[[0,0.5],[1,0.5]];portConstraint=eastwest;rounded=0;shadow=0;html=0;fillColor=#BC6C25;strokeColor=#DDA15E;fontColor=#FEFAE0;" parent="zkfFHV4jXpPFQw0GAbJ--6" vertex="1">
                    <mxGeometry y="52" width="140" height="26" as="geometry"/>
                </mxCell>
                <mxCell id="liBMy7sWaxeGPgHL_rmU-2" value="disableOrderBtn" style="text;align=center;verticalAlign=middle;spacingLeft=4;spacingRight=4;overflow=hidden;rotatable=0;points=[[0,0.5],[1,0.5]];portConstraint=eastwest;rounded=0;shadow=0;html=0;fillColor=#BC6C25;strokeColor=#DDA15E;fontColor=#FEFAE0;" parent="zkfFHV4jXpPFQw0GAbJ--6" vertex="1">
                    <mxGeometry y="78" width="140" height="32" as="geometry"/>
                </mxCell>
                <mxCell id="liBMy7sWaxeGPgHL_rmU-127" value="" style="rounded=0;whiteSpace=wrap;html=1;fillColor=none;fontSize=16;align=center;strokeColor=#DDA15E;fontColor=#FEFAE0;" parent="WIyWlLk6GJQsqaUBKTNV-1" vertex="1">
                    <mxGeometry x="310" y="-660" width="820" height="400" as="geometry"/>
                </mxCell>
                <mxCell id="liBMy7sWaxeGPgHL_rmU-128" value="&lt;b&gt;Shopping Cart Product Creation&lt;/b&gt;" style="rounded=0;whiteSpace=wrap;html=1;fillColor=#1ba1e2;fontSize=16;align=center;strokeColor=#006EAF;fontColor=#ffffff;" parent="WIyWlLk6GJQsqaUBKTNV-1" vertex="1">
                    <mxGeometry x="310" y="-660" width="820" height="30" as="geometry"/>
                </mxCell>
                <mxCell id="liBMy7sWaxeGPgHL_rmU-87" value="" style="rounded=0;whiteSpace=wrap;html=1;fillColor=none;fontSize=16;align=center;strokeColor=#DDA15E;fontColor=#FEFAE0;" parent="WIyWlLk6GJQsqaUBKTNV-1" vertex="1">
                    <mxGeometry x="410" y="-691" width="160" height="101" as="geometry"/>
                </mxCell>
                <mxCell id="liBMy7sWaxeGPgHL_rmU-99" value="" style="rounded=0;whiteSpace=wrap;html=1;fillColor=none;fontSize=16;align=center;strokeColor=#DDA15E;fontColor=#FEFAE0;" parent="WIyWlLk6GJQsqaUBKTNV-1" vertex="1">
                    <mxGeometry x="950" y="-540" width="160" height="230" as="geometry"/>
                </mxCell>
                <mxCell id="liBMy7sWaxeGPgHL_rmU-68" value="" style="rounded=0;whiteSpace=wrap;html=1;fillColor=none;strokeColor=#DDA15E;fontColor=#FEFAE0;" parent="WIyWlLk6GJQsqaUBKTNV-1" vertex="1">
                    <mxGeometry x="1130" y="-860" width="260" height="340" as="geometry"/>
                </mxCell>
                <mxCell id="liBMy7sWaxeGPgHL_rmU-60" value="" style="rounded=0;whiteSpace=wrap;html=1;fillColor=none;strokeColor=#DDA15E;fontColor=#FEFAE0;" parent="WIyWlLk6GJQsqaUBKTNV-1" vertex="1">
                    <mxGeometry x="410" y="-968" width="720" height="308" as="geometry"/>
                </mxCell>
                <mxCell id="liBMy7sWaxeGPgHL_rmU-16" value="" style="edgeStyle=orthogonalEdgeStyle;rounded=0;orthogonalLoop=1;jettySize=auto;html=1;labelBackgroundColor=#283618;strokeColor=#DDA15E;fontColor=#FEFAE0;" parent="WIyWlLk6GJQsqaUBKTNV-1" source="liBMy7sWaxeGPgHL_rmU-13" target="liBMy7sWaxeGPgHL_rmU-15" edge="1">
                    <mxGeometry relative="1" as="geometry"/>
                </mxCell>
                <mxCell id="liBMy7sWaxeGPgHL_rmU-13" value="&lt;span style=&quot;text-align: left&quot;&gt;updateProducts();&lt;/span&gt;" style="rounded=0;whiteSpace=wrap;html=1;fillColor=#BC6C25;strokeColor=#DDA15E;fontColor=#FEFAE0;" parent="WIyWlLk6GJQsqaUBKTNV-1" vertex="1">
                    <mxGeometry x="430" y="-931" width="120" height="40" as="geometry"/>
                </mxCell>
                <mxCell id="liBMy7sWaxeGPgHL_rmU-14" value="" style="edgeStyle=orthogonalEdgeStyle;rounded=0;orthogonalLoop=1;jettySize=auto;html=1;labelBackgroundColor=#283618;strokeColor=#DDA15E;fontColor=#FEFAE0;" parent="WIyWlLk6GJQsqaUBKTNV-1" source="zkfFHV4jXpPFQw0GAbJ--7" target="liBMy7sWaxeGPgHL_rmU-13" edge="1">
                    <mxGeometry relative="1" as="geometry"/>
                </mxCell>
                <mxCell id="liBMy7sWaxeGPgHL_rmU-30" value="" style="edgeStyle=orthogonalEdgeStyle;rounded=0;orthogonalLoop=1;jettySize=auto;html=1;labelBackgroundColor=#283618;strokeColor=#DDA15E;fontColor=#FEFAE0;" parent="WIyWlLk6GJQsqaUBKTNV-1" source="liBMy7sWaxeGPgHL_rmU-15" target="liBMy7sWaxeGPgHL_rmU-29" edge="1">
                    <mxGeometry relative="1" as="geometry"/>
                </mxCell>
                <mxCell id="liBMy7sWaxeGPgHL_rmU-81" style="edgeStyle=orthogonalEdgeStyle;rounded=0;orthogonalLoop=1;jettySize=auto;html=1;fontSize=16;entryX=0;entryY=0.5;entryDx=0;entryDy=0;labelBackgroundColor=#283618;strokeColor=#DDA15E;fontColor=#FEFAE0;" parent="WIyWlLk6GJQsqaUBKTNV-1" source="liBMy7sWaxeGPgHL_rmU-15" target="liBMy7sWaxeGPgHL_rmU-20" edge="1">
                    <mxGeometry relative="1" as="geometry">
                        <mxPoint x="-50" y="-640" as="targetPoint"/>
                        <Array as="points">
                            <mxPoint x="685" y="-1000"/>
                            <mxPoint x="-50" y="-1000"/>
                            <mxPoint x="-50" y="-635"/>
                        </Array>
                    </mxGeometry>
                </mxCell>
                <mxCell id="liBMy7sWaxeGPgHL_rmU-15" value="generateProducttemplate(product);" style="rounded=0;whiteSpace=wrap;html=1;fillColor=#BC6C25;strokeColor=#DDA15E;fontColor=#FEFAE0;" parent="WIyWlLk6GJQsqaUBKTNV-1" vertex="1">
                    <mxGeometry x="580" y="-931" width="210" height="40" as="geometry"/>
                </mxCell>
                <mxCell id="liBMy7sWaxeGPgHL_rmU-31" value="" style="edgeStyle=orthogonalEdgeStyle;rounded=0;orthogonalLoop=1;jettySize=auto;html=1;labelBackgroundColor=#283618;strokeColor=#DDA15E;fontColor=#FEFAE0;" parent="WIyWlLk6GJQsqaUBKTNV-1" source="liBMy7sWaxeGPgHL_rmU-29" target="liBMy7sWaxeGPgHL_rmU-15" edge="1">
                    <mxGeometry relative="1" as="geometry"/>
                </mxCell>
                <mxCell id="liBMy7sWaxeGPgHL_rmU-29" value="product.template.js" style="rounded=0;whiteSpace=wrap;html=1;fillColor=#BC6C25;strokeColor=#DDA15E;fontColor=#FEFAE0;" parent="WIyWlLk6GJQsqaUBKTNV-1" vertex="1">
                    <mxGeometry x="580" y="-870" width="210" height="40" as="geometry"/>
                </mxCell>
                <mxCell id="liBMy7sWaxeGPgHL_rmU-32" value="&lt;div&gt; Product &lt;/div&gt;" style="text;align=left;verticalAlign=top;spacingLeft=4;spacingRight=4;overflow=hidden;rotatable=0;points=[[0,0.5],[1,0.5]];portConstraint=eastwest;rounded=0;shadow=0;html=0;fillColor=#a20025;strokeColor=#6F0000;fontColor=#ffffff;" parent="WIyWlLk6GJQsqaUBKTNV-1" vertex="1">
                    <mxGeometry x="580" y="-830" width="210" height="26" as="geometry"/>
                </mxCell>
                <mxCell id="liBMy7sWaxeGPgHL_rmU-46" style="edgeStyle=orthogonalEdgeStyle;rounded=0;orthogonalLoop=1;jettySize=auto;html=1;labelBackgroundColor=#283618;strokeColor=#DDA15E;fontColor=#FEFAE0;" parent="WIyWlLk6GJQsqaUBKTNV-1" source="liBMy7sWaxeGPgHL_rmU-33" target="liBMy7sWaxeGPgHL_rmU-41" edge="1">
                    <mxGeometry relative="1" as="geometry">
                        <Array as="points">
                            <mxPoint x="670" y="-747"/>
                        </Array>
                    </mxGeometry>
                </mxCell>
                <mxCell id="liBMy7sWaxeGPgHL_rmU-47" style="edgeStyle=orthogonalEdgeStyle;rounded=0;orthogonalLoop=1;jettySize=auto;html=1;entryX=1;entryY=0.5;entryDx=0;entryDy=0;labelBackgroundColor=#283618;strokeColor=#DDA15E;fontColor=#FEFAE0;" parent="WIyWlLk6GJQsqaUBKTNV-1" source="liBMy7sWaxeGPgHL_rmU-33" target="liBMy7sWaxeGPgHL_rmU-42" edge="1">
                    <mxGeometry relative="1" as="geometry">
                        <mxPoint x="890" y="-700" as="targetPoint"/>
                    </mxGeometry>
                </mxCell>
                <mxCell id="liBMy7sWaxeGPgHL_rmU-33" value="&lt;div&gt; Extension &lt;/div&gt;" style="text;align=left;verticalAlign=top;spacingLeft=4;spacingRight=4;overflow=hidden;rotatable=0;points=[[0,0.5],[1,0.5]];portConstraint=eastwest;rounded=0;shadow=0;html=0;fillColor=#a20025;strokeColor=#6F0000;fontColor=#ffffff;" parent="WIyWlLk6GJQsqaUBKTNV-1" vertex="1">
                    <mxGeometry x="580" y="-804" width="210" height="26" as="geometry"/>
                </mxCell>
                <mxCell id="liBMy7sWaxeGPgHL_rmU-35" value="" style="edgeStyle=orthogonalEdgeStyle;rounded=0;orthogonalLoop=1;jettySize=auto;html=1;entryX=1;entryY=0.5;entryDx=0;entryDy=0;labelBackgroundColor=#283618;strokeColor=#DDA15E;fontColor=#FEFAE0;" parent="WIyWlLk6GJQsqaUBKTNV-1" source="liBMy7sWaxeGPgHL_rmU-34" target="liBMy7sWaxeGPgHL_rmU-32" edge="1">
                    <mxGeometry relative="1" as="geometry"/>
                </mxCell>
                <mxCell id="liBMy7sWaxeGPgHL_rmU-34" value="toggleExtension();" style="text;align=left;verticalAlign=top;spacingLeft=4;spacingRight=4;overflow=hidden;rotatable=0;points=[[0,0.5],[1,0.5]];portConstraint=eastwest;rounded=0;shadow=0;html=0;fillColor=#BC6C25;strokeColor=#DDA15E;fontColor=#FEFAE0;" parent="WIyWlLk6GJQsqaUBKTNV-1" vertex="1">
                    <mxGeometry x="820" y="-830" width="110" height="26" as="geometry"/>
                </mxCell>
                <mxCell id="liBMy7sWaxeGPgHL_rmU-38" value="" style="edgeStyle=orthogonalEdgeStyle;rounded=0;orthogonalLoop=1;jettySize=auto;html=1;labelBackgroundColor=#283618;strokeColor=#DDA15E;fontColor=#FEFAE0;" parent="WIyWlLk6GJQsqaUBKTNV-1" source="liBMy7sWaxeGPgHL_rmU-36" edge="1">
                    <mxGeometry relative="1" as="geometry">
                        <mxPoint x="730" y="-780" as="targetPoint"/>
                    </mxGeometry>
                </mxCell>
                <mxCell id="liBMy7sWaxeGPgHL_rmU-36" value="addAmount();" style="text;align=left;verticalAlign=top;spacingLeft=4;spacingRight=4;overflow=hidden;rotatable=0;points=[[0,0.5],[1,0.5]];portConstraint=eastwest;rounded=0;shadow=0;html=0;fillColor=#BC6C25;strokeColor=#DDA15E;fontColor=#FEFAE0;" parent="WIyWlLk6GJQsqaUBKTNV-1" vertex="1">
                    <mxGeometry x="750" y="-760" width="110" height="26" as="geometry"/>
                </mxCell>
                <mxCell id="liBMy7sWaxeGPgHL_rmU-40" style="edgeStyle=orthogonalEdgeStyle;rounded=0;orthogonalLoop=1;jettySize=auto;html=1;labelBackgroundColor=#283618;strokeColor=#DDA15E;fontColor=#FEFAE0;" parent="WIyWlLk6GJQsqaUBKTNV-1" source="liBMy7sWaxeGPgHL_rmU-37" edge="1">
                    <mxGeometry relative="1" as="geometry">
                        <mxPoint x="700" y="-780" as="targetPoint"/>
                    </mxGeometry>
                </mxCell>
                <mxCell id="liBMy7sWaxeGPgHL_rmU-37" value="removeAmount();" style="text;align=left;verticalAlign=top;spacingLeft=4;spacingRight=4;overflow=hidden;rotatable=0;points=[[0,0.5],[1,0.5]];portConstraint=eastwest;rounded=0;shadow=0;html=0;fillColor=#BC6C25;strokeColor=#DDA15E;fontColor=#FEFAE0;" parent="WIyWlLk6GJQsqaUBKTNV-1" vertex="1">
                    <mxGeometry x="750" y="-734" width="110" height="26" as="geometry"/>
                </mxCell>
                <mxCell id="liBMy7sWaxeGPgHL_rmU-49" value="" style="edgeStyle=orthogonalEdgeStyle;rounded=0;orthogonalLoop=1;jettySize=auto;html=1;labelBackgroundColor=#283618;strokeColor=#DDA15E;fontColor=#FEFAE0;" parent="WIyWlLk6GJQsqaUBKTNV-1" source="liBMy7sWaxeGPgHL_rmU-48" target="liBMy7sWaxeGPgHL_rmU-34" edge="1">
                    <mxGeometry relative="1" as="geometry"/>
                </mxCell>
                <mxCell id="liBMy7sWaxeGPgHL_rmU-48" value="toggleClass();" style="text;align=left;verticalAlign=top;spacingLeft=4;spacingRight=4;overflow=hidden;rotatable=0;points=[[0,0.5],[1,0.5]];portConstraint=eastwest;rounded=0;shadow=0;html=0;fillColor=#BC6C25;strokeColor=#DDA15E;fontColor=#FEFAE0;" parent="WIyWlLk6GJQsqaUBKTNV-1" vertex="1">
                    <mxGeometry x="1180" y="-746" width="110" height="26" as="geometry"/>
                </mxCell>
                <mxCell id="liBMy7sWaxeGPgHL_rmU-51" value="" style="edgeStyle=orthogonalEdgeStyle;rounded=0;orthogonalLoop=1;jettySize=auto;html=1;labelBackgroundColor=#283618;strokeColor=#DDA15E;fontColor=#FEFAE0;" parent="WIyWlLk6GJQsqaUBKTNV-1" source="liBMy7sWaxeGPgHL_rmU-50" target="liBMy7sWaxeGPgHL_rmU-34" edge="1">
                    <mxGeometry relative="1" as="geometry">
                        <Array as="points">
                            <mxPoint x="1235" y="-817"/>
                        </Array>
                    </mxGeometry>
                </mxCell>
                <mxCell id="liBMy7sWaxeGPgHL_rmU-52" style="edgeStyle=orthogonalEdgeStyle;rounded=0;orthogonalLoop=1;jettySize=auto;html=1;entryX=1;entryY=0.5;entryDx=0;entryDy=0;labelBackgroundColor=#283618;strokeColor=#DDA15E;fontColor=#FEFAE0;" parent="WIyWlLk6GJQsqaUBKTNV-1" source="liBMy7sWaxeGPgHL_rmU-50" target="liBMy7sWaxeGPgHL_rmU-36" edge="1">
                    <mxGeometry relative="1" as="geometry">
                        <Array as="points">
                            <mxPoint x="970" y="-759"/>
                            <mxPoint x="970" y="-747"/>
                        </Array>
                    </mxGeometry>
                </mxCell>
                <mxCell id="liBMy7sWaxeGPgHL_rmU-53" style="edgeStyle=orthogonalEdgeStyle;rounded=0;orthogonalLoop=1;jettySize=auto;html=1;labelBackgroundColor=#283618;strokeColor=#DDA15E;fontColor=#FEFAE0;" parent="WIyWlLk6GJQsqaUBKTNV-1" source="liBMy7sWaxeGPgHL_rmU-50" target="liBMy7sWaxeGPgHL_rmU-37" edge="1">
                    <mxGeometry relative="1" as="geometry">
                        <Array as="points">
                            <mxPoint x="970" y="-759"/>
                            <mxPoint x="970" y="-721"/>
                        </Array>
                    </mxGeometry>
                </mxCell>
                <mxCell id="liBMy7sWaxeGPgHL_rmU-71" style="edgeStyle=orthogonalEdgeStyle;rounded=0;orthogonalLoop=1;jettySize=auto;html=1;entryX=1;entryY=0.333;entryDx=0;entryDy=0;entryPerimeter=0;fontSize=14;labelBackgroundColor=#283618;strokeColor=#DDA15E;fontColor=#FEFAE0;" parent="WIyWlLk6GJQsqaUBKTNV-1" source="liBMy7sWaxeGPgHL_rmU-50" target="liBMy7sWaxeGPgHL_rmU-41" edge="1">
                    <mxGeometry relative="1" as="geometry"/>
                </mxCell>
                <mxCell id="liBMy7sWaxeGPgHL_rmU-50" value="findProductById();" style="text;align=left;verticalAlign=top;spacingLeft=4;spacingRight=4;overflow=hidden;rotatable=0;points=[[0,0.5],[1,0.5]];portConstraint=eastwest;rounded=0;shadow=0;html=0;fillColor=#BC6C25;strokeColor=#DDA15E;fontColor=#FEFAE0;" parent="WIyWlLk6GJQsqaUBKTNV-1" vertex="1">
                    <mxGeometry x="1180" y="-772" width="110" height="26" as="geometry"/>
                </mxCell>
                <mxCell id="liBMy7sWaxeGPgHL_rmU-57" value="" style="edgeStyle=orthogonalEdgeStyle;rounded=0;orthogonalLoop=1;jettySize=auto;html=1;labelBackgroundColor=#283618;strokeColor=#DDA15E;fontColor=#FEFAE0;" parent="WIyWlLk6GJQsqaUBKTNV-1" source="liBMy7sWaxeGPgHL_rmU-54" target="liBMy7sWaxeGPgHL_rmU-56" edge="1">
                    <mxGeometry relative="1" as="geometry"/>
                </mxCell>
                <mxCell id="liBMy7sWaxeGPgHL_rmU-54" value="&lt;span style=&quot;text-align: left&quot;&gt;&lt;b&gt;product.class.js&lt;br&gt;(Model)&lt;/b&gt;&lt;br&gt;&lt;/span&gt;" style="rounded=0;whiteSpace=wrap;html=1;fillColor=#BC6C25;strokeColor=#DDA15E;fontColor=#FEFAE0;" parent="WIyWlLk6GJQsqaUBKTNV-1" vertex="1">
                    <mxGeometry x="430" y="-800" width="120" height="40" as="geometry"/>
                </mxCell>
                <mxCell id="liBMy7sWaxeGPgHL_rmU-58" value="" style="edgeStyle=orthogonalEdgeStyle;rounded=0;orthogonalLoop=1;jettySize=auto;html=1;labelBackgroundColor=#283618;strokeColor=#DDA15E;fontColor=#FEFAE0;" parent="WIyWlLk6GJQsqaUBKTNV-1" source="liBMy7sWaxeGPgHL_rmU-56" target="liBMy7sWaxeGPgHL_rmU-13" edge="1">
                    <mxGeometry relative="1" as="geometry"/>
                </mxCell>
                <mxCell id="liBMy7sWaxeGPgHL_rmU-56" value="&lt;span style=&quot;text-align: left&quot;&gt;menu.js&lt;br&gt;(List of all products)&lt;br&gt;&lt;/span&gt;" style="rounded=0;whiteSpace=wrap;html=1;fillColor=#BC6C25;strokeColor=#DDA15E;fontColor=#FEFAE0;" parent="WIyWlLk6GJQsqaUBKTNV-1" vertex="1">
                    <mxGeometry x="430" y="-863" width="120" height="40" as="geometry"/>
                </mxCell>
                <mxCell id="liBMy7sWaxeGPgHL_rmU-65" value="&lt;font style=&quot;font-size: 16px&quot;&gt;&lt;b&gt;Product creation&amp;nbsp;&lt;/b&gt;&lt;/font&gt;" style="rounded=0;whiteSpace=wrap;html=1;fillColor=#1ba1e2;strokeColor=#006EAF;fontColor=#ffffff;" parent="WIyWlLk6GJQsqaUBKTNV-1" vertex="1">
                    <mxGeometry x="410" y="-968" width="720" height="28" as="geometry"/>
                </mxCell>
                <mxCell id="liBMy7sWaxeGPgHL_rmU-66" value="&lt;span style=&quot;text-align: left&quot;&gt;&lt;b&gt;shopping-cart.class.js&lt;br&gt;(Model)&lt;/b&gt;&lt;br&gt;&lt;/span&gt;" style="rounded=0;whiteSpace=wrap;html=1;fillColor=#BC6C25;strokeColor=#DDA15E;fontColor=#FEFAE0;" parent="WIyWlLk6GJQsqaUBKTNV-1" vertex="1">
                    <mxGeometry x="950" y="-540" width="160" height="54" as="geometry"/>
                </mxCell>
                <mxCell id="liBMy7sWaxeGPgHL_rmU-82" style="edgeStyle=orthogonalEdgeStyle;rounded=0;orthogonalLoop=1;jettySize=auto;html=1;fontSize=16;labelBackgroundColor=#283618;strokeColor=#DDA15E;fontColor=#FEFAE0;" parent="WIyWlLk6GJQsqaUBKTNV-1" source="liBMy7sWaxeGPgHL_rmU-67" edge="1">
                    <mxGeometry relative="1" as="geometry">
                        <mxPoint x="573" y="-623" as="targetPoint"/>
                        <Array as="points">
                            <mxPoint x="900" y="-471"/>
                            <mxPoint x="900" y="-623"/>
                        </Array>
                    </mxGeometry>
                </mxCell>
                <mxCell id="liBMy7sWaxeGPgHL_rmU-67" value="addProduct();" style="text;align=center;verticalAlign=middle;spacingLeft=4;spacingRight=4;overflow=hidden;rotatable=0;points=[[0,0.5],[1,0.5]];portConstraint=eastwest;rounded=0;shadow=0;html=0;fillColor=#BC6C25;strokeColor=#DDA15E;fontColor=#FEFAE0;" parent="WIyWlLk6GJQsqaUBKTNV-1" vertex="1">
                    <mxGeometry x="950" y="-486" width="160" height="30" as="geometry"/>
                </mxCell>
                <mxCell id="liBMy7sWaxeGPgHL_rmU-69" value="&lt;b&gt;&lt;font style=&quot;font-size: 16px&quot;&gt;helpers.js&lt;/font&gt;&lt;/b&gt;" style="rounded=0;whiteSpace=wrap;html=1;fillColor=#BC6C25;strokeColor=#DDA15E;fontColor=#FEFAE0;" parent="WIyWlLk6GJQsqaUBKTNV-1" vertex="1">
                    <mxGeometry x="1130" y="-860" width="260" height="30" as="geometry"/>
                </mxCell>
                <mxCell id="liBMy7sWaxeGPgHL_rmU-75" value="" style="edgeStyle=orthogonalEdgeStyle;rounded=0;orthogonalLoop=1;jettySize=auto;html=1;fontSize=14;labelBackgroundColor=#283618;strokeColor=#DDA15E;fontColor=#FEFAE0;" parent="WIyWlLk6GJQsqaUBKTNV-1" source="liBMy7sWaxeGPgHL_rmU-42" target="liBMy7sWaxeGPgHL_rmU-34" edge="1">
                    <mxGeometry relative="1" as="geometry">
                        <Array as="points">
                            <mxPoint x="1010" y="-705"/>
                            <mxPoint x="1010" y="-817"/>
                        </Array>
                    </mxGeometry>
                </mxCell>
                <mxCell id="liBMy7sWaxeGPgHL_rmU-76" style="edgeStyle=orthogonalEdgeStyle;rounded=0;orthogonalLoop=1;jettySize=auto;html=1;fontSize=14;labelBackgroundColor=#283618;strokeColor=#DDA15E;fontColor=#FEFAE0;" parent="WIyWlLk6GJQsqaUBKTNV-1" source="liBMy7sWaxeGPgHL_rmU-42" target="liBMy7sWaxeGPgHL_rmU-41" edge="1">
                    <mxGeometry relative="1" as="geometry">
                        <mxPoint x="820" y="-670" as="targetPoint"/>
                        <Array as="points">
                            <mxPoint x="1235" y="-670"/>
                        </Array>
                    </mxGeometry>
                </mxCell>
                <mxCell id="liBMy7sWaxeGPgHL_rmU-42" value="printPrice();" style="text;align=left;verticalAlign=top;spacingLeft=4;spacingRight=4;overflow=hidden;rotatable=0;points=[[0,0.5],[1,0.5]];portConstraint=eastwest;rounded=0;shadow=0;html=0;fillColor=#BC6C25;strokeColor=#DDA15E;fontColor=#FEFAE0;" parent="WIyWlLk6GJQsqaUBKTNV-1" vertex="1">
                    <mxGeometry x="1180" y="-720" width="110" height="30" as="geometry"/>
                </mxCell>
                <mxCell id="liBMy7sWaxeGPgHL_rmU-18" value="index.html" style="swimlane;fontStyle=1;align=center;verticalAlign=top;childLayout=stackLayout;horizontal=1;startSize=26;horizontalStack=0;resizeParent=1;resizeLast=0;collapsible=1;marginBottom=0;rounded=0;shadow=0;strokeWidth=1;fillColor=#a20025;strokeColor=#6F0000;fontSize=16;fontColor=#ffffff;" parent="WIyWlLk6GJQsqaUBKTNV-1" vertex="1">
                    <mxGeometry x="-30" y="-790" width="230" height="290" as="geometry">
                        <mxRectangle x="20" y="10" width="160" height="26" as="alternateBounds"/>
                    </mxGeometry>
                </mxCell>
                <mxCell id="liBMy7sWaxeGPgHL_rmU-23" value="onload=&quot;init();&quot;" style="text;align=center;verticalAlign=top;spacingLeft=4;spacingRight=4;overflow=hidden;rotatable=0;points=[[0,0.5],[1,0.5]];portConstraint=eastwest;fillColor=#BC6C25;strokeColor=#DDA15E;fontStyle=1;fontColor=#FEFAE0;" parent="liBMy7sWaxeGPgHL_rmU-18" vertex="1">
                    <mxGeometry y="26" width="230" height="26" as="geometry"/>
                </mxCell>
                <mxCell id="liBMy7sWaxeGPgHL_rmU-19" value="Header Section" style="text;align=center;verticalAlign=middle;spacingLeft=4;spacingRight=4;overflow=hidden;rotatable=0;points=[[0,0.5],[1,0.5]];portConstraint=eastwest;fillColor=#a20025;strokeColor=#6F0000;fontSize=16;fontColor=#ffffff;" parent="liBMy7sWaxeGPgHL_rmU-18" vertex="1">
                    <mxGeometry y="52" width="230" height="58" as="geometry"/>
                </mxCell>
                <mxCell id="liBMy7sWaxeGPgHL_rmU-20" value="Order Section" style="text;align=center;verticalAlign=middle;spacingLeft=4;spacingRight=4;overflow=hidden;rotatable=0;points=[[0,0.5],[1,0.5]];portConstraint=eastwest;rounded=0;shadow=0;html=0;fillColor=#a20025;strokeColor=#6F0000;fontSize=16;fontStyle=1;fontColor=#ffffff;" parent="liBMy7sWaxeGPgHL_rmU-18" vertex="1">
                    <mxGeometry y="110" width="230" height="90" as="geometry"/>
                </mxCell>
                <mxCell id="liBMy7sWaxeGPgHL_rmU-27" value="Shopping Cart" style="text;align=center;verticalAlign=middle;spacingLeft=4;spacingRight=4;overflow=hidden;rotatable=0;points=[[0,0.5],[1,0.5]];portConstraint=eastwest;rounded=0;shadow=0;html=0;fillColor=#a20025;strokeColor=#6F0000;fontSize=16;fontStyle=1;fontColor=#ffffff;" parent="liBMy7sWaxeGPgHL_rmU-18" vertex="1">
                    <mxGeometry y="200" width="230" height="90" as="geometry"/>
                </mxCell>
                <mxCell id="liBMy7sWaxeGPgHL_rmU-79" style="edgeStyle=orthogonalEdgeStyle;rounded=0;orthogonalLoop=1;jettySize=auto;html=1;entryX=-0.006;entryY=0.104;entryDx=0;entryDy=0;entryPerimeter=0;fontSize=16;labelBackgroundColor=#283618;strokeColor=#DDA15E;fontColor=#FEFAE0;" parent="WIyWlLk6GJQsqaUBKTNV-1" source="liBMy7sWaxeGPgHL_rmU-23" target="zkfFHV4jXpPFQw0GAbJ--6" edge="1">
                    <mxGeometry relative="1" as="geometry"/>
                </mxCell>
                <mxCell id="liBMy7sWaxeGPgHL_rmU-124" style="edgeStyle=orthogonalEdgeStyle;rounded=0;orthogonalLoop=1;jettySize=auto;html=1;fontSize=16;labelBackgroundColor=#283618;strokeColor=#DDA15E;fontColor=#FEFAE0;" parent="WIyWlLk6GJQsqaUBKTNV-1" source="liBMy7sWaxeGPgHL_rmU-83" target="liBMy7sWaxeGPgHL_rmU-27" edge="1">
                    <mxGeometry relative="1" as="geometry"/>
                </mxCell>
                <mxCell id="liBMy7sWaxeGPgHL_rmU-83" value="ShoppingCart &#10;(All selected&#10; products)" style="text;align=center;verticalAlign=middle;spacingLeft=4;spacingRight=4;overflow=hidden;rotatable=0;points=[[0,0.5],[1,0.5]];portConstraint=eastwest;rounded=0;shadow=0;html=0;fillColor=#BC6C25;strokeColor=#DDA15E;fontStyle=1;fontSize=16;fontColor=#FEFAE0;" parent="WIyWlLk6GJQsqaUBKTNV-1" vertex="1">
                    <mxGeometry x="350" y="-510" width="170" height="69" as="geometry"/>
                </mxCell>
                <mxCell id="liBMy7sWaxeGPgHL_rmU-108" style="edgeStyle=orthogonalEdgeStyle;rounded=0;orthogonalLoop=1;jettySize=auto;html=1;entryX=0.5;entryY=0;entryDx=0;entryDy=0;fontSize=16;labelBackgroundColor=#283618;strokeColor=#DDA15E;fontColor=#FEFAE0;" parent="WIyWlLk6GJQsqaUBKTNV-1" source="liBMy7sWaxeGPgHL_rmU-85" target="liBMy7sWaxeGPgHL_rmU-86" edge="1">
                    <mxGeometry relative="1" as="geometry"/>
                </mxCell>
                <mxCell id="liBMy7sWaxeGPgHL_rmU-85" value="&lt;span style=&quot;text-align: left&quot;&gt;updateShoppingCart();&lt;/span&gt;" style="rounded=0;whiteSpace=wrap;html=1;fillColor=#BC6C25;strokeColor=#DDA15E;fontColor=#FEFAE0;" parent="WIyWlLk6GJQsqaUBKTNV-1" vertex="1">
                    <mxGeometry x="410" y="-630" width="160" height="40" as="geometry"/>
                </mxCell>
                <mxCell id="liBMy7sWaxeGPgHL_rmU-109" style="edgeStyle=orthogonalEdgeStyle;rounded=0;orthogonalLoop=1;jettySize=auto;html=1;entryX=0.485;entryY=0.006;entryDx=0;entryDy=0;entryPerimeter=0;fontSize=16;labelBackgroundColor=#283618;strokeColor=#DDA15E;fontColor=#FEFAE0;" parent="WIyWlLk6GJQsqaUBKTNV-1" source="liBMy7sWaxeGPgHL_rmU-86" target="liBMy7sWaxeGPgHL_rmU-83" edge="1">
                    <mxGeometry relative="1" as="geometry">
                        <Array as="points">
                            <mxPoint x="490" y="-530"/>
                            <mxPoint x="433" y="-530"/>
                        </Array>
                    </mxGeometry>
                </mxCell>
                <mxCell id="liBMy7sWaxeGPgHL_rmU-86" value="&lt;span style=&quot;text-align: left&quot;&gt;updateTotalCosts();&lt;/span&gt;" style="rounded=0;whiteSpace=wrap;html=1;fillColor=#BC6C25;strokeColor=#DDA15E;fontColor=#FEFAE0;" parent="WIyWlLk6GJQsqaUBKTNV-1" vertex="1">
                    <mxGeometry x="410" y="-590" width="160" height="40" as="geometry"/>
                </mxCell>
                <mxCell id="liBMy7sWaxeGPgHL_rmU-93" value="" style="edgeStyle=orthogonalEdgeStyle;rounded=0;orthogonalLoop=1;jettySize=auto;html=1;fontSize=16;entryX=0;entryY=0.5;entryDx=0;entryDy=0;labelBackgroundColor=#283618;strokeColor=#DDA15E;fontColor=#FEFAE0;" parent="WIyWlLk6GJQsqaUBKTNV-1" source="liBMy7sWaxeGPgHL_rmU-87" target="liBMy7sWaxeGPgHL_rmU-89" edge="1">
                    <mxGeometry relative="1" as="geometry">
                        <Array as="points">
                            <mxPoint x="520" y="-700"/>
                            <mxPoint x="580" y="-700"/>
                            <mxPoint x="580" y="-690"/>
                        </Array>
                    </mxGeometry>
                </mxCell>
                <mxCell id="liBMy7sWaxeGPgHL_rmU-96" style="edgeStyle=orthogonalEdgeStyle;rounded=0;orthogonalLoop=1;jettySize=auto;html=1;fontSize=16;labelBackgroundColor=#283618;strokeColor=#DDA15E;fontColor=#FEFAE0;" parent="WIyWlLk6GJQsqaUBKTNV-1" source="liBMy7sWaxeGPgHL_rmU-89" target="liBMy7sWaxeGPgHL_rmU-37" edge="1">
                    <mxGeometry relative="1" as="geometry">
                        <mxPoint x="840" y="-670" as="targetPoint"/>
                        <Array as="points">
                            <mxPoint x="810" y="-690"/>
                        </Array>
                    </mxGeometry>
                </mxCell>
                <mxCell id="liBMy7sWaxeGPgHL_rmU-89" value="Reset" style="rounded=0;whiteSpace=wrap;html=1;fillColor=#BC6C25;fontSize=16;align=center;strokeColor=#DDA15E;fontColor=#FEFAE0;" parent="WIyWlLk6GJQsqaUBKTNV-1" vertex="1">
                    <mxGeometry x="600" y="-700" width="120" height="20" as="geometry"/>
                </mxCell>
                <mxCell id="liBMy7sWaxeGPgHL_rmU-111" style="edgeStyle=orthogonalEdgeStyle;rounded=0;orthogonalLoop=1;jettySize=auto;html=1;fontSize=16;labelBackgroundColor=#283618;strokeColor=#DDA15E;fontColor=#FEFAE0;" parent="WIyWlLk6GJQsqaUBKTNV-1" source="liBMy7sWaxeGPgHL_rmU-97" target="liBMy7sWaxeGPgHL_rmU-100" edge="1">
                    <mxGeometry relative="1" as="geometry"/>
                </mxCell>
                <mxCell id="liBMy7sWaxeGPgHL_rmU-97" value="addProductAmount();" style="text;align=center;verticalAlign=middle;spacingLeft=4;spacingRight=4;overflow=hidden;rotatable=0;points=[[0,0.5],[1,0.5]];portConstraint=eastwest;rounded=0;shadow=0;html=0;fillColor=#BC6C25;strokeColor=#DDA15E;fontColor=#FEFAE0;" parent="WIyWlLk6GJQsqaUBKTNV-1" vertex="1">
                    <mxGeometry x="950" y="-456" width="160" height="30" as="geometry"/>
                </mxCell>
                <mxCell id="liBMy7sWaxeGPgHL_rmU-125" style="edgeStyle=orthogonalEdgeStyle;rounded=0;orthogonalLoop=1;jettySize=auto;html=1;fontSize=16;labelBackgroundColor=#283618;strokeColor=#DDA15E;fontColor=#FEFAE0;" parent="WIyWlLk6GJQsqaUBKTNV-1" source="liBMy7sWaxeGPgHL_rmU-98" target="liBMy7sWaxeGPgHL_rmU-118" edge="1">
                    <mxGeometry relative="1" as="geometry">
                        <Array as="points">
                            <mxPoint x="890" y="-411"/>
                            <mxPoint x="890" y="-375"/>
                        </Array>
                    </mxGeometry>
                </mxCell>
                <mxCell id="liBMy7sWaxeGPgHL_rmU-98" value="removeProductAMount();" style="text;align=center;verticalAlign=middle;spacingLeft=4;spacingRight=4;overflow=hidden;rotatable=0;points=[[0,0.5],[1,0.5]];portConstraint=eastwest;rounded=0;shadow=0;html=0;fillColor=#BC6C25;strokeColor=#DDA15E;fontColor=#FEFAE0;" parent="WIyWlLk6GJQsqaUBKTNV-1" vertex="1">
                    <mxGeometry x="950" y="-426" width="160" height="30" as="geometry"/>
                </mxCell>
                <mxCell id="liBMy7sWaxeGPgHL_rmU-100" value="addShoppingCartProductAmount();" style="text;align=center;verticalAlign=middle;spacingLeft=4;spacingRight=4;overflow=hidden;rotatable=0;points=[[0,0.5],[1,0.5]];portConstraint=eastwest;rounded=0;shadow=0;html=0;fillColor=#BC6C25;strokeColor=#DDA15E;fontColor=#FEFAE0;" parent="WIyWlLk6GJQsqaUBKTNV-1" vertex="1">
                    <mxGeometry x="550" y="-420" width="220" height="30" as="geometry"/>
                </mxCell>
                <mxCell id="liBMy7sWaxeGPgHL_rmU-101" value="removeShoppingCartProductAmount();" style="text;align=center;verticalAlign=middle;spacingLeft=4;spacingRight=4;overflow=hidden;rotatable=0;points=[[0,0.5],[1,0.5]];portConstraint=eastwest;rounded=0;shadow=0;html=0;fillColor=#BC6C25;strokeColor=#DDA15E;fontColor=#FEFAE0;" parent="WIyWlLk6GJQsqaUBKTNV-1" vertex="1">
                    <mxGeometry x="550" y="-390" width="220" height="30" as="geometry"/>
                </mxCell>
                <mxCell id="liBMy7sWaxeGPgHL_rmU-120" style="edgeStyle=orthogonalEdgeStyle;rounded=0;orthogonalLoop=1;jettySize=auto;html=1;fontSize=16;labelBackgroundColor=#283618;strokeColor=#DDA15E;fontColor=#FEFAE0;" parent="WIyWlLk6GJQsqaUBKTNV-1" source="liBMy7sWaxeGPgHL_rmU-103" edge="1">
                    <mxGeometry relative="1" as="geometry">
                        <mxPoint x="570" y="-570" as="targetPoint"/>
                        <Array as="points">
                            <mxPoint x="790" y="-396"/>
                            <mxPoint x="790" y="-450"/>
                            <mxPoint x="630" y="-450"/>
                            <mxPoint x="630" y="-570"/>
                        </Array>
                    </mxGeometry>
                </mxCell>
                <mxCell id="liBMy7sWaxeGPgHL_rmU-103" value="updateCosts();" style="text;align=center;verticalAlign=middle;spacingLeft=4;spacingRight=4;overflow=hidden;rotatable=0;points=[[0,0.5],[1,0.5]];portConstraint=eastwest;rounded=0;shadow=0;html=0;fillColor=#BC6C25;strokeColor=#DDA15E;fontColor=#FEFAE0;" parent="WIyWlLk6GJQsqaUBKTNV-1" vertex="1">
                    <mxGeometry x="950" y="-396" width="160" height="30" as="geometry"/>
                </mxCell>
                <mxCell id="liBMy7sWaxeGPgHL_rmU-41" value="addToCart();" style="text;align=center;verticalAlign=middle;spacingLeft=4;spacingRight=4;overflow=hidden;rotatable=0;points=[[0,0.5],[1,0.5]];portConstraint=eastwest;rounded=0;shadow=0;html=0;fillColor=#BC6C25;strokeColor=#DDA15E;fontStyle=1;fontSize=14;fontColor=#FEFAE0;" parent="WIyWlLk6GJQsqaUBKTNV-1" vertex="1">
                    <mxGeometry x="410" y="-690" width="160" height="60" as="geometry"/>
                </mxCell>
                <mxCell id="liBMy7sWaxeGPgHL_rmU-113" value="deleteFromShoppingCart();" style="text;align=center;verticalAlign=middle;spacingLeft=4;spacingRight=4;overflow=hidden;rotatable=0;points=[[0,0.5],[1,0.5]];portConstraint=eastwest;rounded=0;shadow=0;html=0;fillColor=#BC6C25;strokeColor=#DDA15E;fontColor=#FEFAE0;" parent="WIyWlLk6GJQsqaUBKTNV-1" vertex="1">
                    <mxGeometry x="550" y="-360" width="220" height="30" as="geometry"/>
                </mxCell>
                <mxCell id="liBMy7sWaxeGPgHL_rmU-116" style="edgeStyle=orthogonalEdgeStyle;rounded=0;orthogonalLoop=1;jettySize=auto;html=1;fontSize=16;labelBackgroundColor=#283618;strokeColor=#DDA15E;fontColor=#FEFAE0;" parent="WIyWlLk6GJQsqaUBKTNV-1" source="liBMy7sWaxeGPgHL_rmU-115" target="liBMy7sWaxeGPgHL_rmU-113" edge="1">
                    <mxGeometry relative="1" as="geometry"/>
                </mxCell>
                <mxCell id="liBMy7sWaxeGPgHL_rmU-115" value="removeProduct();" style="text;align=center;verticalAlign=middle;spacingLeft=4;spacingRight=4;overflow=hidden;rotatable=0;points=[[0,0.5],[1,0.5]];portConstraint=eastwest;rounded=0;shadow=0;html=0;fillColor=#BC6C25;strokeColor=#DDA15E;fontColor=#FEFAE0;" parent="WIyWlLk6GJQsqaUBKTNV-1" vertex="1">
                    <mxGeometry x="950" y="-366" width="160" height="30" as="geometry"/>
                </mxCell>
                <mxCell id="liBMy7sWaxeGPgHL_rmU-119" style="edgeStyle=orthogonalEdgeStyle;rounded=0;orthogonalLoop=1;jettySize=auto;html=1;entryX=1;entryY=0.5;entryDx=0;entryDy=0;fontSize=16;labelBackgroundColor=#283618;strokeColor=#DDA15E;fontColor=#FEFAE0;" parent="WIyWlLk6GJQsqaUBKTNV-1" source="liBMy7sWaxeGPgHL_rmU-118" target="liBMy7sWaxeGPgHL_rmU-86" edge="1">
                    <mxGeometry relative="1" as="geometry">
                        <Array as="points">
                            <mxPoint x="630" y="-570"/>
                        </Array>
                    </mxGeometry>
                </mxCell>
                <mxCell id="liBMy7sWaxeGPgHL_rmU-118" value="" style="rounded=0;whiteSpace=wrap;html=1;fillColor=none;fontSize=16;align=center;strokeColor=#DDA15E;fontColor=#FEFAE0;" parent="WIyWlLk6GJQsqaUBKTNV-1" vertex="1">
                    <mxGeometry x="550" y="-420" width="220" height="90" as="geometry"/>
                </mxCell>
                <mxCell id="liBMy7sWaxeGPgHL_rmU-123" style="edgeStyle=orthogonalEdgeStyle;rounded=0;orthogonalLoop=1;jettySize=auto;html=1;fontSize=16;labelBackgroundColor=#283618;strokeColor=#DDA15E;fontColor=#FEFAE0;" parent="WIyWlLk6GJQsqaUBKTNV-1" source="liBMy7sWaxeGPgHL_rmU-121" target="liBMy7sWaxeGPgHL_rmU-85" edge="1">
                    <mxGeometry relative="1" as="geometry">
                        <Array as="points">
                            <mxPoint x="770" y="-610"/>
                        </Array>
                    </mxGeometry>
                </mxCell>
                <mxCell id="liBMy7sWaxeGPgHL_rmU-121" value="generateShoppingCartProductTemplate();" style="rounded=0;whiteSpace=wrap;html=1;fillColor=#BC6C25;strokeColor=#DDA15E;fontColor=#FEFAE0;" parent="WIyWlLk6GJQsqaUBKTNV-1" vertex="1">
                    <mxGeometry x="650" y="-540" width="240" height="40" as="geometry"/>
                </mxCell>
                <mxCell id="liBMy7sWaxeGPgHL_rmU-122" value="shoppingCartTemplate.js" style="rounded=0;whiteSpace=wrap;html=1;fillColor=#BC6C25;strokeColor=#DDA15E;fontColor=#FEFAE0;" parent="WIyWlLk6GJQsqaUBKTNV-1" vertex="1">
                    <mxGeometry x="680" y="-500" width="210" height="37" as="geometry"/>
                </mxCell>
                <mxCell id="liBMy7sWaxeGPgHL_rmU-129" value="&lt;span style=&quot;text-align: left&quot;&gt;&lt;b&gt;&lt;font style=&quot;font-size: 16px&quot;&gt;SendOrder();&lt;/font&gt;&lt;/b&gt;&lt;/span&gt;" style="rounded=0;whiteSpace=wrap;html=1;fillColor=#BC6C25;strokeColor=#DDA15E;fontColor=#FEFAE0;" parent="WIyWlLk6GJQsqaUBKTNV-1" vertex="1">
                    <mxGeometry x="-30" y="-425" width="220" height="40" as="geometry"/>
                </mxCell>
                <mxCell id="liBMy7sWaxeGPgHL_rmU-131" style="edgeStyle=orthogonalEdgeStyle;rounded=0;orthogonalLoop=1;jettySize=auto;html=1;entryX=1;entryY=0.5;entryDx=0;entryDy=0;fontSize=16;labelBackgroundColor=#283618;strokeColor=#DDA15E;fontColor=#FEFAE0;" parent="WIyWlLk6GJQsqaUBKTNV-1" source="liBMy7sWaxeGPgHL_rmU-130" target="liBMy7sWaxeGPgHL_rmU-19" edge="1">
                    <mxGeometry relative="1" as="geometry"/>
                </mxCell>
                <mxCell id="liBMy7sWaxeGPgHL_rmU-130" value="&lt;span style=&quot;text-align: left&quot;&gt;&lt;font style=&quot;font-size: 12px&quot;&gt;infoDiv();&lt;/font&gt;&lt;/span&gt;" style="rounded=0;whiteSpace=wrap;html=1;fillColor=#BC6C25;strokeColor=#DDA15E;fontColor=#FEFAE0;" parent="WIyWlLk6GJQsqaUBKTNV-1" vertex="1">
                    <mxGeometry x="330" y="-708" width="56" height="34" as="geometry"/>
                </mxCell>
                <mxCell id="liBMy7sWaxeGPgHL_rmU-133" style="edgeStyle=orthogonalEdgeStyle;rounded=0;orthogonalLoop=1;jettySize=auto;html=1;fontSize=16;labelBackgroundColor=#283618;strokeColor=#DDA15E;fontColor=#FEFAE0;" parent="WIyWlLk6GJQsqaUBKTNV-1" source="liBMy7sWaxeGPgHL_rmU-2" target="liBMy7sWaxeGPgHL_rmU-129" edge="1">
                    <mxGeometry relative="1" as="geometry">
                        <Array as="points">
                            <mxPoint x="290" y="-405"/>
                        </Array>
                    </mxGeometry>
                </mxCell>
                <mxCell id="liBMy7sWaxeGPgHL_rmU-134" style="edgeStyle=orthogonalEdgeStyle;rounded=0;orthogonalLoop=1;jettySize=auto;html=1;fontSize=16;labelBackgroundColor=#283618;strokeColor=#DDA15E;fontColor=#FEFAE0;" parent="WIyWlLk6GJQsqaUBKTNV-1" source="liBMy7sWaxeGPgHL_rmU-27" target="liBMy7sWaxeGPgHL_rmU-129" edge="1">
                    <mxGeometry relative="1" as="geometry">
                        <Array as="points">
                            <mxPoint x="80" y="-490"/>
                            <mxPoint x="80" y="-490"/>
                        </Array>
                    </mxGeometry>
                </mxCell>
            </root>
        </mxGraphModel>
    </diagram>
</mxfile>